<?xml version="1.0" encoding="UTF-8" standalone="no"?>
<!DOCTYPE svg PUBLIC "-//W3C//DTD SVG 1.1//EN"
 "http://www.w3.org/Graphics/SVG/1.1/DTD/svg11.dtd">
<!-- Generated by graphviz version 2.36.0 (20140111.2315)
 -->
<!-- Title: %3 Pages: 1 -->
<svg width="654pt" height="95pt"
 viewBox="0.00 0.00 654.00 95.00" xmlns="http://www.w3.org/2000/svg" xmlns:xlink="http://www.w3.org/1999/xlink">
<g id="graph0" class="graph" transform="scale(1 1) rotate(0) translate(4 91)">
<title>%3</title>
<polygon fill="white" stroke="none" points="-4,4 -4,-91 650,-91 650,4 -4,4"/>
<!-- 1 -->
<g id="node1" class="node"><title>1</title>
<ellipse fill="none" stroke="black" cx="27" cy="-40" rx="27" ry="18"/>
<text text-anchor="middle" x="27" y="-36.3" font-family="Times,serif" font-size="14.00">#</text>
</g>
<!-- 7 -->
<g id="node7" class="node"><title>7</title>
<ellipse fill="none" stroke="black" cx="145" cy="-40" rx="27" ry="18"/>
<text text-anchor="middle" x="145" y="-36.3" font-family="Times,serif" font-size="14.00">The</text>
</g>
<!-- 1&#45;&gt;7 -->
<g id="edge1" class="edge"><title>1&#45;&gt;7</title>
<path fill="none" stroke="black" d="M54.0327,-40C69.7428,-40 90.0033,-40 107.319,-40"/>
<polygon fill="black" stroke="black" points="107.653,-43.5001 117.653,-40 107.653,-36.5001 107.653,-43.5001"/>
<text text-anchor="middle" x="86" y="-43.8" font-family="Times,serif" font-size="14.00">A, B</text>
</g>
<!-- 2 -->
<g id="node2" class="node"><title>2</title>
<ellipse fill="none" stroke="black" cx="247" cy="-67" rx="27" ry="18"/>
<text text-anchor="middle" x="247" y="-63.3" font-family="Times,serif" font-size="14.00">big</text>
</g>
<!-- 5 -->
<g id="node5" class="node"><title>5</title>
<ellipse fill="none" stroke="black" cx="391" cy="-69" rx="27" ry="18"/>
<text text-anchor="middle" x="391" y="-65.3" font-family="Times,serif" font-size="14.00">gray</text>
</g>
<!-- 2&#45;&gt;5 -->
<g id="edge2" class="edge"><title>2&#45;&gt;5</title>
<path fill="none" stroke="black" d="M274.045,-67.3668C296.324,-67.6806 328.634,-68.1357 353.493,-68.4858"/>
<polygon fill="black" stroke="black" points="353.591,-71.9874 363.639,-68.6287 353.69,-64.9881 353.591,-71.9874"/>
<text text-anchor="middle" x="319" y="-71.8" font-family="Times,serif" font-size="14.00">A</text>
</g>
<!-- 3 -->
<g id="node3" class="node"><title>3</title>
<ellipse fill="none" stroke="black" cx="497" cy="-39" rx="30.5947" ry="18"/>
<text text-anchor="middle" x="497" y="-35.3" font-family="Times,serif" font-size="14.00">koala</text>
</g>
<!-- 6 -->
<g id="node6" class="node"><title>6</title>
<ellipse fill="none" stroke="black" cx="619" cy="-39" rx="27" ry="18"/>
<text text-anchor="middle" x="619" y="-35.3" font-family="Times,serif" font-size="14.00">#</text>
</g>
<!-- 3&#45;&gt;6 -->
<g id="edge3" class="edge"><title>3&#45;&gt;6</title>
<path fill="none" stroke="black" d="M527.663,-39C543.986,-39 564.375,-39 581.649,-39"/>
<polygon fill="black" stroke="black" points="581.939,-42.5001 591.939,-39 581.939,-35.5001 581.939,-42.5001"/>
<text text-anchor="middle" x="560" y="-42.8" font-family="Times,serif" font-size="14.00">A, B</text>
</g>
<!-- 4 -->
<g id="node4" class="node"><title>4</title>
<ellipse fill="none" stroke="black" cx="319" cy="-18" rx="27" ry="18"/>
<text text-anchor="middle" x="319" y="-14.3" font-family="Times,serif" font-size="14.00">grey</text>
</g>
<!-- 4&#45;&gt;3 -->
<g id="edge4" class="edge"><title>4&#45;&gt;3</title>
<path fill="none" stroke="black" d="M346.251,-19.973C366.013,-21.5644 393.75,-24.0239 418,-27 430.855,-28.5777 444.852,-30.6264 457.395,-32.5833"/>
<polygon fill="black" stroke="black" points="457.107,-36.0813 467.532,-34.193 458.204,-29.1679 457.107,-36.0813"/>
<text text-anchor="middle" x="391" y="-30.8" font-family="Times,serif" font-size="14.00">B</text>
</g>
<!-- 5&#45;&gt;3 -->
<g id="edge5" class="edge"><title>5&#45;&gt;3</title>
<path fill="none" stroke="black" d="M416.121,-62.042C428.992,-58.3292 445.099,-53.6831 459.471,-49.5373"/>
<polygon fill="black" stroke="black" points="460.444,-52.8993 469.082,-46.7648 458.504,-46.1736 460.444,-52.8993"/>
<text text-anchor="middle" x="442" y="-58.8" font-family="Times,serif" font-size="14.00">A</text>
</g>
<!-- 7&#45;&gt;2 -->
<g id="edge7" class="edge"><title>7&#45;&gt;2</title>
<path fill="none" stroke="black" d="M170.207,-46.5359C182.644,-49.8939 198.012,-54.0434 211.653,-57.7262"/>
<polygon fill="black" stroke="black" points="211.102,-61.2029 221.669,-60.4307 212.927,-54.4449 211.102,-61.2029"/>
<text text-anchor="middle" x="196" y="-58.8" font-family="Times,serif" font-size="14.00">A</text>
</g>
<!-- 7&#45;&gt;4 -->
<g id="edge6" class="edge"><title>7&#45;&gt;4</title>
<path fill="none" stroke="black" d="M171.079,-35.1228C177.251,-34.0102 183.853,-32.8938 190,-32 220.915,-27.5047 256.22,-23.7454 281.911,-21.2581"/>
<polygon fill="black" stroke="black" points="282.322,-24.7349 291.945,-20.3038 281.659,-17.7663 282.322,-24.7349"/>
<text text-anchor="middle" x="196" y="-35.8" font-family="Times,serif" font-size="14.00">B</text>
</g>
</g>
</svg>
