<?xml version="1.0" encoding="UTF-8" standalone="no"?>
<!DOCTYPE svg PUBLIC "-//W3C//DTD SVG 1.1//EN"
 "http://www.w3.org/Graphics/SVG/1.1/DTD/svg11.dtd">
<!-- Generated by graphviz version 2.38.0 (20140413.2041)
 -->
<!-- Title: %3 Pages: 1 -->
<svg width="686pt" height="130pt"
 viewBox="0.00 0.00 686.00 130.00" xmlns="http://www.w3.org/2000/svg" xmlns:xlink="http://www.w3.org/1999/xlink">
<g id="graph0" class="graph" transform="scale(1 1) rotate(0) translate(4 126)">
<title>%3</title>
<polygon fill="white" stroke="none" points="-4,4 -4,-126 682,-126 682,4 -4,4"/>
<!-- 1 -->
<g id="node1" class="node"><title>1</title>
<polygon fill="none" stroke="black" points="54,-83 0,-83 0,-47 54,-47 54,-83"/>
<text text-anchor="middle" x="27" y="-61.3" font-family="Times,serif" font-size="14.00">1</text>
</g>
<!-- 3 -->
<g id="node3" class="node"><title>3</title>
<polygon fill="none" stroke="black" points="217,-83 163,-83 163,-47 217,-47 217,-83"/>
<text text-anchor="middle" x="190" y="-61.3" font-family="Times,serif" font-size="14.00">3</text>
</g>
<!-- 1&#45;&gt;3 -->
<g id="edge1" class="edge"><title>1&#45;&gt;3</title>
<path fill="none" stroke="black" d="M54.2258,-65C81.0071,-65 122.79,-65 152.732,-65"/>
<polygon fill="black" stroke="black" points="152.786,-68.5001 162.785,-65 152.785,-61.5001 152.786,-68.5001"/>
<text text-anchor="middle" x="108.5" y="-68.8" font-family="Times,serif" font-size="14.00">f1818, f1823</text>
</g>
<!-- 2 -->
<g id="node2" class="node"><title>2</title>
<polygon fill="none" stroke="black" points="678,-83 624,-83 624,-47 678,-47 678,-83"/>
<text text-anchor="middle" x="651" y="-61.3" font-family="Times,serif" font-size="14.00">2</text>
</g>
<!-- 4 -->
<g id="node4" class="node"><title>4</title>
<polygon fill="none" stroke="black" points="392,-122 286,-122 286,-70 392,-70 392,-122"/>
<polygon fill="none" stroke="black" points="295,-96 295,-117 344,-117 344,-96 295,-96"/>
<text text-anchor="start" x="298" y="-103.8" font-family="Times,serif" font-weight="bold" font-size="14.00">ecstasy</text>
<polygon fill="none" stroke="black" points="344,-96 344,-117 383,-117 383,-96 344,-96"/>
<text text-anchor="start" x="347" y="-103.8" font-family="Times,serif" font-weight="bold" font-size="14.00">Sigla</text>
<polygon fill="none" stroke="black" points="295,-75 295,-96 344,-96 344,-75 295,-75"/>
<text text-anchor="start" x="298" y="-81.8" font-family="Bukyvede" font-size="14.00">ecstasy </text>
<polygon fill="none" stroke="black" points="344,-75 344,-96 383,-96 383,-75 344,-75"/>
<text text-anchor="start" x="347" y="-81.8" font-family="Times,serif" font-size="14.00">f1818</text>
<polygon fill="none" stroke="black" points="294,-74 294,-118 384,-118 384,-74 294,-74"/>
</g>
<!-- 3&#45;&gt;4 -->
<g id="edge2" class="edge"><title>3&#45;&gt;4</title>
<path fill="none" stroke="black" d="M217.281,-70.5422C233.604,-73.9844 255.315,-78.563 275.821,-82.8875"/>
<polygon fill="black" stroke="black" points="275.256,-86.3451 285.763,-84.984 276.7,-79.4957 275.256,-86.3451"/>
<text text-anchor="middle" x="251.5" y="-83.8" font-family="Times,serif" font-size="14.00">f1818</text>
</g>
<!-- 6 -->
<g id="node6" class="node"><title>6</title>
<polygon fill="none" stroke="black" points="392,-52 286,-52 286,-0 392,-0 392,-52"/>
<polygon fill="none" stroke="black" points="295,-26 295,-47 344,-47 344,-26 295,-26"/>
<text text-anchor="start" x="298" y="-33.8" font-family="Times,serif" font-weight="bold" font-size="14.00">ecstacy</text>
<polygon fill="none" stroke="black" points="344,-26 344,-47 383,-47 383,-26 344,-26"/>
<text text-anchor="start" x="347" y="-33.8" font-family="Times,serif" font-weight="bold" font-size="14.00">Sigla</text>
<polygon fill="none" stroke="black" points="295,-5 295,-26 344,-26 344,-5 295,-5"/>
<text text-anchor="start" x="298" y="-11.8" font-family="Bukyvede" font-size="14.00">ecstacy </text>
<polygon fill="none" stroke="black" points="344,-5 344,-26 383,-26 383,-5 344,-5"/>
<text text-anchor="start" x="347" y="-11.8" font-family="Times,serif" font-size="14.00">f1823</text>
<polygon fill="none" stroke="black" points="294,-4 294,-48 384,-48 384,-4 294,-4"/>
</g>
<!-- 3&#45;&gt;6 -->
<g id="edge3" class="edge"><title>3&#45;&gt;6</title>
<path fill="none" stroke="black" d="M217.281,-58.0276C233.604,-53.697 255.315,-47.9369 275.821,-42.4964"/>
<polygon fill="black" stroke="black" points="276.995,-45.8063 285.763,-39.8589 275.199,-39.0403 276.995,-45.8063"/>
<text text-anchor="middle" x="251.5" y="-55.8" font-family="Times,serif" font-size="14.00">f1823</text>
</g>
<!-- 5 -->
<g id="node5" class="node"><title>5</title>
<polygon fill="none" stroke="black" points="515,-83 461,-83 461,-47 515,-47 515,-83"/>
<text text-anchor="middle" x="488" y="-61.3" font-family="Times,serif" font-size="14.00">5</text>
</g>
<!-- 4&#45;&gt;5 -->
<g id="edge4" class="edge"><title>4&#45;&gt;5</title>
<path fill="none" stroke="black" d="M392.241,-84.9833C411.694,-80.8808 433.322,-76.3199 450.998,-72.5923"/>
<polygon fill="black" stroke="black" points="451.839,-75.9919 460.902,-70.5037 450.395,-69.1425 451.839,-75.9919"/>
<text text-anchor="middle" x="426.5" y="-83.8" font-family="Times,serif" font-size="14.00">f1818</text>
</g>
<!-- 5&#45;&gt;2 -->
<g id="edge5" class="edge"><title>5&#45;&gt;2</title>
<path fill="none" stroke="black" d="M515.226,-65C542.007,-65 583.79,-65 613.732,-65"/>
<polygon fill="black" stroke="black" points="613.786,-68.5001 623.785,-65 613.785,-61.5001 613.786,-68.5001"/>
<text text-anchor="middle" x="569.5" y="-68.8" font-family="Times,serif" font-size="14.00">f1818, f1823</text>
</g>
<!-- 6&#45;&gt;5 -->
<g id="edge6" class="edge"><title>6&#45;&gt;5</title>
<path fill="none" stroke="black" d="M392.241,-39.8598C411.694,-45.0209 433.322,-50.7589 450.998,-55.4484"/>
<polygon fill="black" stroke="black" points="450.339,-58.8946 460.902,-58.076 452.134,-52.1286 450.339,-58.8946"/>
<text text-anchor="middle" x="426.5" y="-55.8" font-family="Times,serif" font-size="14.00">f1823</text>
</g>
</g>
</svg>
